{"title":"Road Movie (2010) Repack DVD Rip DIVX AC3 [Dare DEvils]","uid":5532324,"size":937088430,"categoryP":"video","categoryS":"movies","magnet":"?xt=urn:btih:84216b926fee9352b92fe27550d185c18fc29555&amp;dn=Road+Movie+%282010%29+Repack+DVD+Rip+DIVX+AC3+%5BDare+DEvils%5D&amp;tr=udp%3A%2F%2Ftracker.openbittorrent.com%3A80&amp;tr=udp%3A%2F%2Fopen.demonii.com%3A1337&amp;tr=udp%3A%2F%2Ftracker.coppersurfer.tk%3A6969&amp;tr=udp%3A%2F%2Fexodus.desync.com%3A6969","seeders":2,"leechers":1,"uploader":"luvwithromio","files":-1,"time":1272965634,"description":"Format                           : AVI\nFormat/Info                      : Audio Video Interleave\nFile size                        : 894 MiB\nDuration                         : 1h 36mn\nOverall bit rate                 : 1 289 Kbps\n\nVideo\nID                               : 0\nFormat                           : MPEG-4 Visual\nFormat profile                   : Simple@L1\nFormat settings, BVOP            : No\nFormat settings, QPel            : No\nFormat settings, GMC             : No warppoints\nFormat settings, Matrix          : Default (H.263)\nCodec ID                         : DX50\nCodec ID/Hint                    : DivX 5\nDuration                         : 1h 36mn\nBit rate                         : 1 086 Kbps\nWidth                            : 640 pixels\nHeight                           : 272 pixels\nDisplay aspect ratio             : 2.35:1\nFrame rate                       : 23.976 fps\nResolution                       : 8 bits\nColorimetry                      : 4:2:0\nScan type                        : Progressive\nBits/(Pixel*Frame)               : 0.260\nStream size                      : 753 MiB (84%)\nWriting library                  : Lavc51.40.4\n\nAudio\nID                               : 1\nFormat                           : AC-3\nFormat/Info                      : Audio Coding 3\nFormat_Settings_ModeExtension    : CM (complete main)\nCodec ID                         : 2000\nDuration                         : 1h 36mn\nBit rate mode                    : Constant\nBit rate                         : 192 Kbps\nChannel(s)                       : 6 channels\nChannel positions                : Front: L C R, Side: L R, LFE\nSampling rate                    : 48.0 KHz\nResolution                       : 16 bits\nStream size                      : 133 MiB (15%)\nAlignment                        : Aligned on interleaves\nInterleave, duration             : 32 ms (0.77 video frame)","torrent":{"xt":"urn:btih:84216b926fee9352b92fe27550d185c18fc29555","amp;dn":"Road+Movie+%282010%29+Repack+DVD+Rip+DIVX+AC3+%5BDare+DEvils%5D","amp;tr":["udp%3A%2F%2Ftracker.openbittorrent.com%3A80","udp%3A%2F%2Fopen.demonii.com%3A1337","udp%3A%2F%2Ftracker.coppersurfer.tk%3A6969","udp%3A%2F%2Fexodus.desync.com%3A6969"],"infoHash":"84216b926fee9352b92fe27550d185c18fc29555","infoHashBuffer":{"type":"Buffer","data":[132,33,107,146,111,238,147,82,185,47,226,117,80,209,133,193,143,194,149,85]},"announce":[],"urlList":[]}}